# xmcd CD database file
#
# Track frame offsets:
#	150
#	15319
#	30602
#	49563
#	71894
#	87595
#	110999
#	130369
#	147266
#	177840
#	199687
#	230679
#	245126
#	304510
#	326279
#
# Disc length: 4420 seconds
#
# Revision: 2
# Processed by: cddbd v1.5.2PL0 Copyright (c) Steve Scherf et al.
# Submitted via: CDex 1.51
#
DISCID=d511420f
DTITLE=ROSS QUARESMINI - T-H-U-N
DYEAR=2010
DGENRE=New Age
TTITLE0=Poem For Rose  Intro
TTITLE1=Instrumental Island
TTITLE2=Chantin 'Dreams
TTITLE3=Poem For aRose
TTITLE4=Memories of a Fiore
TTITLE5=Prelude To Coral sand
TTITLE6=Time Remembered
TTITLE7=Sentimental Motive
TTITLE8=Memories of Morning Flower
TTITLE9=Mremembering Cassandra I
TTITLE10=Instrumental Dream
TTITLE11=Divine Lane
TTITLE12=First Stars
TTITLE13=Mremembering Cassandra II
TTITLE14=Dasty Lands
EXTD=YEAR: 2010
EXTT0=
EXTT1=
EXTT2=
EXTT3=
EXTT4=
EXTT5=
EXTT6=
EXTT7=
EXTT8=
EXTT9=
EXTT10=
EXTT11=
EXTT12=
EXTT13=
EXTT14=
PLAYORDER=
